
        <svg xmlns="http://www.w3.org/2000/svg" xmlns:xlink="http://www.w3.org/1999/xlink" version="1.1" width="3281.202682240969" 
        height="1420.0735453168938" viewBox="0 0 3281.202682240969 1420.0735453168938">
			
			<g transform="scale(14.060134112048454) translate(10, 10)">
				<defs id="SvgjsDefs4935"></defs><g id="SvgjsG4936" featureKey="0LeO0L-0" transform="matrix(4.344581463726038,0,0,4.344581463726038,4.532482387071627,-28.054606446385495)" fill="#01aac1"><path d="M7.38 6.82 c-0.1 0.02 -0.04 0.06 0.02 0.08 c0.06 -0.02 -0.04 -0.04 -0.02 -0.08 c0.04 -0.04 0.1 -0.02 0.16 0 c0 0.04 -0.04 0.04 -0.02 0.1 c-0.1 0.04 -0.18 -0.04 -0.22 0.04 c0.04 0 0.18 0.12 0.22 0 c0.04 0.04 0.08 0.06 0.1 0.12 c-0.16 -0.06 -0.4 0 -0.46 -0.14 c0.04 0 0.08 0.04 0.12 0 c-0.02 -0.1 -0.14 -0.02 -0.2 0.02 c-0.06 0 -0.02 -0.1 0.04 -0.08 c-0.04 -0.08 -0.28 -0.02 -0.38 0 c0 0.04 0.14 0.06 0.08 0.08 c-0.1 0.06 -0.1 -0.12 -0.24 -0.1 c-0.04 0.06 0.08 0 0.04 0.08 c-0.1 -0.04 -0.36 0.1 -0.36 -0.08 c-0.08 0 -0.04 0.12 -0.1 0.14 c-0.06 -0.02 0 -0.12 -0.02 -0.14 c-0.1 0 -0.06 0.02 -0.04 0.08 l-0.16 0 c0 -0.04 0.04 -0.06 0.08 -0.04 c-0.14 -0.08 -0.34 -0.06 -0.48 0 c0.04 0.12 0.28 -0.08 0.32 0.06 c-0.18 0.02 -0.36 0 -0.44 0.1 c-0.1 -0.02 -0.22 -0.08 -0.24 0.06 c-0.12 -0.1 -0.16 0.04 -0.3 -0.04 c-0.04 0.02 -0.06 0.1 -0.08 0.12 c0.7 -0.16 1.8 -0.2 2.42 -0.14 c0.32 0.06 0.78 0.24 0.98 0.22 c0.02 0.06 0.1 0.08 0.16 0.12 c0.12 -0.02 -0.04 -0.08 0.02 -0.1 c0.1 0 0.06 0.04 0.06 0.1 c0.1 0.1 0.26 0.14 0.4 0.2 c-0.1 -0.1 -0.22 -0.16 -0.36 -0.22 c0.28 0 0.52 0.28 0.78 0.38 c0.06 -0.02 -0.06 -0.04 -0.02 -0.1 c0.02 0.02 0.06 0.04 0.12 0.02 c-0.04 -0.1 -0.12 -0.04 -0.24 -0.06 c0 -0.1 -0.08 -0.06 -0.06 -0.14 c0.04 0 0.1 0 0.08 -0.08 c0.1 0.06 0.2 0.14 0.3 0.22 c0.1 -0.14 -0.18 -0.1 -0.08 -0.2 c-0.1 -0.02 -0.2 -0.06 -0.28 -0.1 c0.04 0.08 -0.12 0.1 -0.04 0.22 c-0.06 -0.1 -0.12 -0.08 -0.14 -0.16 c0.04 -0.06 0.06 0 0.12 0.02 c0 -0.08 0.04 -0.08 0.02 -0.16 c-0.04 0 -0.06 0.04 -0.06 0.08 c-0.04 0 -0.08 -0.04 -0.12 -0.06 c-0.02 0.06 0.04 0.06 0.04 0.12 c-0.1 -0.06 -0.3 -0.04 -0.3 -0.2 c0.06 0.04 0.12 0.08 0.2 0.1 c0.08 -0.08 0 -0.12 0.14 -0.04 c0.06 -0.04 -0.1 -0.08 -0.08 -0.16 c0.14 0.08 0.3 0.1 0.34 0.28 c0.14 -0.06 0.24 0.12 0.34 0.18 c0 0.06 0 0.1 -0.04 0.1 c-0.02 0.06 0.08 0.02 0.06 0.1 c0.04 0 0.06 -0.02 0.06 -0.08 c0.72 0.58 0.96 1.36 1.22 2.34 c-0.02 0.32 0 0.82 -0.1 1.22 c-0.06 -0.1 0.04 -0.18 0 -0.3 c-0.06 0.1 -0.12 0.3 -0.06 0.42 c-0.2 0.12 -0.24 0.48 -0.3 0.7 c0.04 -0.02 0.02 -0.08 0.08 -0.06 c-0.12 0.22 -0.24 0.48 -0.44 0.68 c0.02 -0.18 0.1 -0.2 0.16 -0.36 c-0.2 0.18 -0.4 0.32 -0.5 0.58 c-0.02 0.02 0 0.02 0 0 c0.06 -0.06 0.04 0.06 0.12 0.02 c0.08 -0.08 0.08 -0.2 0.2 -0.22 c-0.06 0.18 -0.2 0.32 -0.32 0.44 c-0.02 -0.02 -0.06 -0.02 -0.06 -0.04 c-0.08 0.02 -0.12 0.08 -0.18 0.14 c0.08 0.08 0.12 -0.08 0.2 -0.08 c-0.04 0.1 -0.08 0.12 -0.14 0.12 c0.02 0.18 -0.16 0.28 -0.32 0.28 c-0.12 0.1 -0.18 0.28 -0.36 0.36 c0 -0.04 0.02 -0.04 0.02 -0.06 c-0.06 0 -0.08 0.04 -0.12 0.08 c0.08 0.04 0.24 -0.04 0.32 0.04 c-0.08 0.02 -0.18 0.08 -0.26 0.16 c0.06 -0.06 0.04 -0.14 -0.04 -0.16 c-0.02 0.02 -0.04 0.04 -0.04 0.1 c-0.1 0.04 0 -0.08 -0.08 -0.08 c-0.1 0.08 0.08 0.08 0.06 0.18 c-0.1 -0.02 -0.1 0 -0.2 0.08 c-0.1 -0.02 0.02 -0.04 0 -0.1 c-0.12 0.06 -0.22 0.16 -0.32 0.26 c0.08 0 0.06 0.12 0.14 0.14 c-0.02 0.14 -0.16 0.14 -0.26 0.2 c0 -0.1 0.08 -0.1 0.1 -0.14 c-0.06 -0.1 -0.2 0.12 -0.1 0.14 c-0.02 0.04 -0.04 0.08 -0.12 0.1 c0 -0.06 0.02 -0.06 0.02 -0.1 c-0.04 0 -0.14 0.18 -0.18 0.06 c0.08 0.02 0.06 -0.04 0.1 -0.06 c-0.08 -0.02 -0.12 0 -0.1 0.06 c-0.22 0.02 -0.34 0.3 -0.56 0.34 c-0.04 0.06 0 0.04 0 0.1 c-0.28 0.06 -0.44 0.24 -0.56 0.46 c-0.06 -0.1 -0.06 0.02 -0.16 0.02 c0 -0.04 0 -0.08 -0.02 -0.1 c-0.36 0.22 -0.76 0.46 -1.12 0.74 c-0.08 0.02 -0.06 -0.04 -0.1 -0.06 c-0.04 0.02 0.02 0.14 -0.08 0.1 l0 0.2 c0.1 0 -0.02 -0.1 0.04 -0.12 c0.06 0 0 0.12 0.04 0.14 c0.04 -0.16 0.1 0.04 0.16 -0.04 c0.04 0.08 -0.12 0.08 -0.2 0.08 c0 0.08 -0.18 0.12 -0.28 0.18 c0.06 -0.08 0.16 -0.2 0.12 -0.32 c-0.14 0 -0.12 0.14 -0.22 0.14 c0 -0.04 0 -0.06 0.02 -0.08 c-0.1 0 -0.06 0.1 -0.2 0.06 c-0.02 0.08 0.08 0.02 0.06 0.1 c-0.06 0 -0.08 0.04 -0.1 0.06 c0 0.1 0.1 0.1 0.2 0.14 c-0.1 0.12 -0.2 0.08 -0.3 0.16 c-0.06 -0.04 0.02 -0.16 0.1 -0.14 c0 -0.08 -0.04 -0.08 -0.02 -0.14 c-0.08 0.04 -0.04 0.08 -0.12 0.12 c-0.06 0 -0.06 -0.04 -0.06 -0.1 c-0.1 0.04 -0.14 0.12 -0.2 0.2 c-0.04 0.04 -0.04 -0.04 -0.08 -0.06 c-0.06 0.16 0.22 0.14 0.3 0.14 c0 0.04 -0.02 0.04 -0.02 0.08 c1.48 0.74 2.88 1.6 3.72 3.02 c0.02 0 0.04 0.02 0.06 0.04 c0.3 0.74 0.58 1.54 0.42 2.3 c-0.08 0 -0.06 0.04 -0.1 0.12 c-0.06 -0.1 -0.04 -0.3 -0.14 -0.38 c0.1 -0.04 0.04 0.08 0.1 0.08 c0.06 -0.2 -0.2 -0.44 -0.08 -0.76 c-0.04 0.12 0.08 0.24 0.04 0.36 c0.12 -0.08 -0.04 -0.36 0.02 -0.44 c-0.16 -0.34 -0.16 -0.7 -0.34 -1 c-0.02 -0.08 0.04 -0.06 0.06 -0.08 c-0.04 -0.06 -0.08 -0.1 -0.12 -0.16 c-0.06 0 0.02 0.04 0 0.08 c-0.44 -0.76 -1.04 -1.36 -1.8 -1.8 c-0.44 -0.38 -0.98 -0.64 -1.52 -0.82 c0 -0.04 -0.04 -0.06 -0.02 -0.1 c-0.24 0.06 -0.34 -0.18 -0.46 -0.1 c-0.12 -0.12 -0.34 -0.12 -0.46 -0.08 c0.04 -0.08 -0.04 -0.08 -0.06 -0.14 c-0.1 0.08 0.12 0.16 -0.02 0.2 c0.04 0.04 0.14 -0.02 0.22 -0.02 c0 0.04 -0.02 0.06 -0.04 0.06 c0.08 0.08 0.24 0.08 0.3 0.18 c0.06 0.02 0.04 -0.06 0.08 -0.08 c0.04 0.04 0.1 0.04 0.12 0.08 c0 0.08 -0.02 0 -0.08 0.02 c0.26 0.2 0.5 0.28 0.8 0.46 c-0.02 -0.08 0.1 -0.04 0.12 -0.06 c0.08 0.04 -0.08 0.08 0 0.12 c0.08 0.1 0.28 0.08 0.3 0.2 c0.08 0 -0.04 -0.06 0.02 -0.06 c0.08 0.06 0.18 0 0.24 0.08 c-0.08 0.02 -0.12 -0.04 -0.16 0 c0.08 0.1 0.14 0.2 0.32 0.18 c0.26 0.26 0.54 0.5 0.92 0.64 c0.04 0.08 0.04 0.18 0.14 0.18 c0 0 -0.02 0 -0.02 0.04 c-0.02 0 -0.04 0.02 -0.04 0.04 c0.02 0.04 0.04 0 0.04 -0.04 c0.3 0.1 0.3 0.48 0.6 0.58 c0.04 0.1 0.1 0.16 0.18 0.22 c-0.02 0.04 -0.04 0.04 -0.06 0.08 c0.1 0.1 0.18 0.22 0.22 0.38 l0.12 0 c-0.08 -0.1 -0.04 -0.18 -0.1 -0.32 c0.1 0.08 0.12 0.22 0.2 0.32 c0 0.06 -0.14 0.06 -0.16 0.02 c0.04 0.08 0.06 0.1 0.06 0.2 c0.14 -0.08 0.26 0.08 0.16 0.24 c-0.02 0 -0.04 -0.02 -0.04 -0.02 c0 -0.08 0.1 -0.14 0 -0.18 c-0.02 0.08 0 0.04 -0.06 0 c0.02 0.06 0.02 0.14 0.06 0.18 c0 0.04 0 0.06 0.02 0.1 c0 -0.04 0.06 -0.04 0.06 -0.1 c0.1 0.02 -0.02 0.14 -0.04 0.18 c0.1 0.2 0.12 0.4 0.16 0.66 c-0.06 0 -0.04 -0.1 -0.1 -0.04 s0.12 0.28 -0.06 0.28 c-0.58 -2.52 -2.66 -3.74 -4.9 -4.64 c-0.16 0.1 -0.36 0.12 -0.5 0.22 c-0.02 -0.04 -0.06 -0.06 -0.06 -0.12 c0.12 -0.02 0.2 -0.1 0.26 -0.02 c0.08 0 0.08 -0.06 0.1 -0.1 c-0.02 -0.06 -0.12 -0.04 -0.16 -0.06 c-0.08 0.08 -0.16 0.08 -0.2 0.14 c-0.1 0 -0.1 -0.1 -0.22 -0.08 c-0.04 0.04 0 0.1 -0.04 0.14 l-0.12 0 c-0.02 0.04 -0.02 0.1 -0.1 0.1 c0.12 0.14 0.24 -0.12 0.4 -0.1 l0 0.08 c-0.02 0 -0.02 0 -0.02 0.02 c0.02 0 0.02 0 0.02 -0.02 c0.04 0 0.06 -0.04 0.08 0 c-0.04 0.08 -0.16 0.08 -0.24 0.12 c-0.1 0 0 -0.04 0 -0.08 c-0.1 0 -0.1 0.1 -0.12 0.16 c-0.24 0.08 -0.72 0.06 -0.66 0.36 c-0.08 -0.02 -0.04 0.06 -0.1 0.06 c0.02 0.34 -0.2 0.62 -0.2 0.9 c-0.14 0.12 -0.1 0.46 -0.24 0.54 c0.02 0.28 -0.22 0.52 -0.2 0.84 c-0.2 0.18 -0.06 0.46 -0.26 0.68 c0 0.36 -0.28 0.76 -0.22 1.06 c-0.04 0.06 -0.06 0.12 -0.1 0.18 c-0.04 0.1 0.08 0.08 0.06 0.18 c-0.16 0.56 -0.28 1.16 -0.64 1.62 c0.04 0.2 -0.04 0.34 -0.1 0.58 c-0.2 0.02 -0.36 -0.2 -0.5 -0.2 c-0.02 -0.08 -0.04 -0.24 -0.2 -0.22 c-0.2 -0.42 0.14 -0.68 0.12 -1.06 c0.02 -0.04 0.12 -0.02 0.12 -0.04 c0.54 -1.7 0.98 -3.24 1.18 -5.1 c-0.1 -0.1 -0.3 -0.1 -0.4 -0.2 c0.02 -0.02 0.02 -0.08 0.06 -0.1 c-0.02 -0.06 -0.14 -0.04 -0.16 -0.08 c0 -0.06 0.1 -0.02 0.12 -0.06 c-0.24 -0.12 -0.46 -0.42 -0.56 -0.72 c-0.04 -0.04 -0.04 0.02 -0.12 0 c-0.42 -0.2 -0.02 -0.74 0.14 -0.94 c0.18 0 0.32 -0.18 0.48 -0.12 c0.16 -0.18 0.46 -0.12 0.68 -0.02 c0.36 -2.14 0.26 -4.58 0.1 -6.7 c-0.04 0 -0.02 0.04 -0.02 0.08 c-0.26 -0.02 -0.24 0.28 -0.44 0.34 c-0.02 0.24 -0.22 0.26 -0.28 0.46 c-0.1 -0.02 -0.12 0 -0.2 0 c-0.18 -0.2 -0.3 -0.42 -0.22 -0.8 c0.2 -0.54 0.52 -0.98 1 -1.26 c0.26 -0.22 0.64 -0.4 0.96 -0.6 c0.06 -0.02 0.06 0.02 0.12 0 c0.28 -0.14 0.62 -0.24 0.94 -0.38 c0.72 -0.36 1.5 -0.56 2.28 -0.8 c0.02 -0.02 0.1 -0.02 0.14 -0.02 c0.82 -0.14 1.66 -0.14 2.56 0.02 c0.02 0.08 -0.1 0.04 -0.08 0.12 c-0.2 -0.06 -0.28 -0.06 -0.56 -0.04 c0.06 0.12 0.26 0.02 0.36 0.12 c0 0.02 0.02 0.02 0.04 0.04 z M6.52 6.5600000000000005 c-0.06 0.08 0.08 -0.06 0 0 l0 0 z M6.04 6.58 c-0.28 0.14 -0.44 -0.04 -0.68 0.14 c-0.06 -0.02 -0.14 -0.02 -0.2 -0.04 c-0.08 0.06 -0.16 0.04 -0.24 0.12 l0 -0.08 c-0.14 0.04 -0.16 0.08 -0.28 0.1 c0.04 0.26 0.52 -0.12 0.68 0.04 c0 -0.02 -0.02 -0.04 -0.02 -0.06 c0.1 -0.04 0.1 -0.02 0.18 0.02 c0.02 -0.02 0 -0.06 0.02 -0.08 c0.38 0.02 0.98 -0.08 1.46 -0.02 c-0.02 -0.16 -0.22 -0.06 -0.24 -0.18 c-0.14 0.18 -0.5 0.04 -0.68 0.04 z M4.14 6.92 c-0.04 0.02 0 0.1 -0.06 0.1 c-0.34 -0.04 -0.38 0.16 -0.62 0.14 c0.02 0.14 -0.18 0.04 -0.16 0.16 c0.06 0.04 0.12 -0.04 0.18 0.04 c0 -0.06 0 -0.1 0.06 -0.1 c0.36 -0.22 0.8 -0.14 1.08 -0.38 c-0.04 -0.04 -0.12 0.02 -0.16 -0.04 c-0.04 0.06 -0.2 0.08 -0.32 0.08 z M6.48 6.880000000000001 c-0.06 0.08 0.08 -0.04 0 0 l0 0 z M5.28 6.960000000000001 c0.1 0.04 0.12 0 0.24 0 c-0.02 -0.12 -0.2 -0.06 -0.24 0 z M4.42 7.039999999999999 c-0.02 0 -0.04 0 -0.04 0.02 c0.02 0 0.04 0 0.04 -0.02 z M4.8 7.140000000000001 c-0.02 0 -0.06 0 -0.06 0.02 c0.02 0 0.04 0 0.06 -0.02 z M4.4 7.32 c0.12 0 0.18 -0.08 0.32 -0.06 l0 -0.1 c-0.1 0.04 -0.12 0.02 -0.18 0.08 c0.04 -0.06 -0.04 -0.12 -0.04 -0.06 c0.06 0.06 -0.14 0.02 -0.1 0.14 z M1.24 15.620000000000001 c-0.06 0.08 0.08 0.16 -0.02 0.2 c0 -0.04 0 -0.08 -0.08 -0.08 c0 0.22 -0.04 0.34 -0.04 0.54 c0.16 0.02 0.24 0.06 0.38 0.06 c0.3 -0.72 0.46 -1.48 0.78 -2.22 c0.02 -0.12 0.02 -0.14 -0.02 -0.2 c0.52 -1.06 0.8 -2.34 1.24 -3.5 c0.1 0 0.1 0.06 0.18 0.04 c0.04 0 0.06 -0.04 0.12 -0.04 c0.24 0.04 0.48 0.08 0.58 0.26 c-0.02 0.02 0 0.22 0.02 0.3 c-0.34 0.84 -0.72 1.8 -1.02 2.76 c-0.18 0.2 -0.24 0.48 -0.36 0.68 c0.04 0 0.06 -0.02 0.1 -0.02 c-0.04 0.06 -0.1 0.1 -0.14 0.14 c-0.06 0.48 -0.34 0.72 -0.36 1.24 c-0.18 0.04 -0.06 0.44 -0.28 0.5 c0.06 0.08 0 0.12 0 0.22 c0.32 0.1 0.62 0.16 0.86 0.32 c0.06 -0.14 0.14 0.08 0.3 0.02 c0.06 0 -0.06 -0.1 0.02 -0.1 c0.32 -0.02 0.46 -0.2 0.76 -0.24 c0.16 -0.14 0.36 -0.26 0.6 -0.36 c0.02 -0.04 0.02 -0.1 0.08 -0.1 c0.72 -0.36 1.34 -0.8 2.04 -1.24 c0 -0.02 0 -0.06 0.02 -0.06 c0.18 -0.08 0.24 -0.26 0.44 -0.3 c0.68 -0.6 1.46 -1.24 2.06 -1.96 c0.1 -0.14 0.18 -0.3 0.3 -0.44 c0.04 -0.02 0.12 -0.04 0.16 -0.08 c0.3 -0.4 0.6 -1.22 0.54 -1.98 c-0.5 -2.04 -2.38 -2.86 -4.64 -2.68 c-0.54 0.06 -1 0.22 -1.56 0.34 c-0.72 0.26 -1.48 0.54 -2.14 0.88 c-0.26 0.12 -0.46 0.34 -0.78 0.42 c-0.1 0.14 -0.26 0.24 -0.36 0.36 c-0.04 -0.04 -0.04 0.02 -0.1 0.04 c0 0.2 0.16 0.38 0.2 0.6 c0.02 0.1 0 0.24 0 0.36 c0.04 0.34 0.1 0.7 0.12 1 c0.02 0.18 0.06 0.4 0.06 0.56 c0 0.02 -0.08 0.06 -0.08 0.08 l0.02 0.1 c0.04 0.18 0.08 0.46 0.06 0.64 c0 0.04 0.08 0.12 0.02 0.16 c-0.06 -0.02 -0.02 -0.12 -0.08 -0.1 c0.08 0.08 -0.06 0.14 0 0.18 c0 -0.02 0.08 0.04 0.1 0.04 c-0.06 0.06 -0.1 0.14 -0.14 0.24 c0.06 -0.02 0.1 -0.08 0.16 0 c0.02 0.14 -0.12 0.12 -0.1 0.26 c0 0.08 0.18 0.16 0.06 0.22 c-0.08 0 0.02 -0.14 -0.06 -0.12 c-0.08 0.24 0.12 0.32 0.08 0.56 c-0.02 0.04 -0.1 -0.06 -0.1 0.04 c-0.02 0.08 0.1 0.06 0.1 0.12 c-0.04 0.02 -0.06 0.02 -0.1 0 c0.1 0.1 0 0.14 -0.02 0.28 c0.02 0.04 0.08 0.02 0.08 0.08 c-0.06 0.02 -0.1 0.08 -0.08 0.2 c0.04 -0.04 0.12 0.08 0.02 0.12 c0.02 -0.06 0 -0.08 -0.04 -0.08 c0.02 0.22 -0.02 0.54 -0.06 0.82 c0.08 0.02 0.04 -0.08 0.1 -0.08 z M4.28 7.359999999999999 c0.04 0 0.06 -0.02 0.08 -0.06 c-0.04 0 -0.1 0 -0.08 0.06 z M2.9 7.5 c0.14 -0.04 0.26 -0.1 0.34 -0.18 c-0.12 0.04 -0.28 0.06 -0.34 0.18 z M9.24 7.539999999999999 c0 -0.06 -0.06 -0.04 -0.08 -0.06 c0 0.04 0.02 0.06 0.08 0.06 z M2.76 7.52 l0 0.04 l0.04 0 l0.02 -0.02 l0 -0.04 l-0.04 0 c0 0 0 0.02 -0.02 0.02 z M2.6 7.619999999999999 c0.06 -0.02 0.08 -0.06 0.14 -0.08 c-0.04 0 -0.06 -0.04 -0.1 -0.02 c-0.02 0.04 -0.04 0.06 -0.04 0.1 z M3.58 7.5600000000000005 c-0.02 0.02 -0.04 0 -0.04 0.04 c0 -0.02 0.04 -0.02 0.04 -0.04 z M8.94 7.619999999999999 c-0.04 0 -0.04 -0.04 -0.08 -0.02 c-0.04 0.04 0.08 0.06 0.08 0.02 z M9.5 7.82 c0.06 0.06 0.04 -0.08 0 0 c-0.04 -0.02 -0.06 -0.04 -0.12 -0.04 c-0.02 0.08 0.02 0.1 0.06 0.12 c0 -0.04 0.08 -0.02 0.06 -0.08 z M1.46 7.880000000000001 c0.04 0.04 0.12 0 0.14 -0.06 c-0.08 -0.02 -0.1 0.04 -0.14 0.06 z M2.12 7.84 c0.02 0.08 0.02 -0.08 0 0 l0 0 z M9.6 7.859999999999999 l0.04 0 l0 -0.04 l-0.04 0 l0 0.04 z M1.38 7.9399999999999995 c0.04 0.06 0.06 -0.1 0 0 l0 0 z M9.5 7.960000000000001 c0.04 -0.02 0.08 0.06 0.1 0 c-0.06 -0.02 -0.08 -0.08 -0.1 0 z M9.72 8.06 c-0.02 -0.02 -0.1 -0.06 -0.1 0 c0 0 0.08 0.04 0.1 0 z M9.88 8.3 c0 -0.08 -0.08 -0.2 -0.14 -0.16 c0.08 0.02 0.06 0.14 0.14 0.16 z M9.86 8.14 c0.02 0.02 -0.02 0 0 0 l0 0 z M9.96 8.36 c0 0.02 -0.02 0 0 0 l0 0 z M10.14 8.6 c0 -0.06 -0.02 -0.1 -0.08 -0.12 c0 0.06 0.02 0.12 0.08 0.12 z M1.08 15.42 c0.08 -0.02 0 -0.12 0 0 c-0.1 -0.22 0.08 -0.6 -0.02 -0.82 c0.02 -0.04 0.06 -0.04 0.08 0 c-0.08 -0.78 0.1 -2.2 -0.08 -3.12 c0.02 0 0 0.06 0.04 0.08 c0 -0.18 -0.04 -0.3 -0.06 -0.42 c0.02 0 0.06 0 0.06 -0.02 c-0.02 -0.06 -0.08 -0.04 -0.08 -0.12 c0 -0.06 0.04 -0.06 0.06 -0.1 c-0.12 0.04 0 -0.16 -0.04 -0.22 c-0.04 0.06 0 -0.16 -0.02 -0.22 l0.04 0 l0 -0.04 c-0.04 -0.02 -0.04 0 -0.04 0.04 c-0.08 -0.38 -0.06 -0.72 -0.16 -1.06 c0.04 0.64 0.08 1.66 0.18 2.46 c-0.02 0.04 0 0.14 -0.04 0.18 c0.1 1.3 -0.06 2.6 -0.1 3.76 c-0.06 0.16 -0.04 0.26 -0.04 0.44 c0.26 -0.1 0.12 -0.58 0.22 -0.82 z M1.06 10.18 c0.02 0.08 0.06 -0.1 0 0 l0 0 z M1.26 12.42 c-0.02 0 -0.04 0 -0.04 0.02 c0.02 0 0.04 0 0.04 -0.02 z M9.56 13.08 c0.02 -0.04 0.04 -0.06 0 -0.08 c0 0.02 -0.04 0.06 0 0.08 z M1.2 13.1 c0.06 0 0.06 -0.12 0 -0.08 l0 0.08 z M9.66 13.02 c-0.02 0 -0.04 0 -0.04 0.02 c0.02 0 0.04 0 0.04 -0.02 z M1.3 13.26 c0 0 0 -0.02 0.02 -0.02 c0 -0.02 -0.02 -0.06 -0.06 -0.04 c0.02 0.02 0 0.06 0.04 0.06 z M9.24 13.5 c0 0.02 -0.02 0 0 0 l0 0 z M9.02 13.66 c-0.02 0 -0.06 0 -0.06 0.02 c0.02 -0.02 0.04 0 0.06 -0.02 z M8.9 13.719999999999999 c0.02 0.08 0.06 -0.1 0 0 l0 0 z M8.54 13.8 c0.02 0.08 0.02 -0.1 0 0 l0 0 z M8.32 13.82 c0.02 0.1 0.02 -0.1 0 0 l0 0 z M8.36 13.82 c0.02 0.02 0 -0.02 0 0 l0 0 z M8.34 13.96 c0.04 0 0.1 0 0.1 -0.06 c-0.06 -0.02 -0.08 0.02 -0.1 0.06 z M8.56 13.92 c0.02 0 -0.02 -0.02 0 0 l0 0 z M8.24 14 c0 -0.04 -0.02 -0.06 -0.04 -0.08 c-0.02 0.04 0 0.06 0.04 0.08 z M1.24 14.02 c0.08 0.02 0.08 -0.1 0 -0.06 l0 0.06 z M8.12 14.18 l0.04 0 c0 -0.04 0 -0.06 -0.04 -0.04 l0 0.04 z M7.86 14.26 c0.04 0 0.06 -0.02 0.06 -0.06 c-0.04 0 -0.06 0.02 -0.06 0.06 z M7.94 14.3 l0.06 0 l0 -0.04 l-0.06 0 l0 0.04 z M8.02 14.280000000000001 c0.02 0.1 0.02 -0.1 0 0 l0 0 z M7.66 14.4 c0.06 0 0.08 -0.04 0.1 -0.08 c-0.06 0 -0.08 0.04 -0.1 0.08 z M7.8 14.36 c0.04 0.06 0.06 -0.1 0 0 l0 0 z M7.76 14.4 c0 0.06 -0.04 0.06 -0.02 0.14 c0.1 -0.04 0.16 -0.12 0.2 -0.22 c-0.1 0 -0.08 0.14 -0.18 0.08 z M1.2 14.4 c-0.02 0 -0.06 0 -0.06 0.02 c0.02 0 0.06 0 0.06 -0.02 z M7.52 14.440000000000001 c0.02 0.02 -0.02 0 0 0 l0 0 z M7.52 14.5 l0 0.04 l0.04 0 c0 -0.02 0 -0.02 0.02 -0.02 l0 -0.04 l-0.04 0 c0 0 0 0.02 -0.02 0.02 z M8.16 14.54 l0.04 0 l0 -0.04 l-0.04 0 l0 0.04 z M7.62 14.64 c0.06 0.02 0.04 -0.06 0.06 -0.08 l-0.06 0 l0 0.08 z M7.4 14.64 c-0.04 0.14 0.1 0 0 0 l0 0 z M7.38 14.66 c-0.02 0 -0.06 0 -0.06 0.02 c0.02 0 0.04 0 0.06 -0.02 z M7.56 14.68 c0.02 0.02 0 0 0 0 l0 0 z M7.5 14.719999999999999 c0 0 -0.02 -0.02 0 0 l0 0 z M7.28 14.76 c-0.12 0.02 -0.26 0.12 -0.36 0.24 c0.14 -0.02 0.2 -0.12 0.3 -0.16 c0.06 0 0.06 0.06 0.06 0.12 c0.08 -0.02 0.06 -0.14 0.18 -0.12 c0 0.02 -0.04 0.02 -0.04 0.04 c0.04 0.02 0.14 -0.06 0.04 -0.04 l0 -0.08 c-0.08 0 -0.14 0.1 -0.18 0 c0 -0.04 -0.02 0 0 0 z M7.2 14.96 c-0.08 0.02 -0.12 0.06 -0.14 0.14 c0.06 -0.04 0.14 -0.04 0.14 -0.14 l0.02 0 c0 -0.02 0.02 -0.02 0.02 -0.02 l0 -0.06 c-0.04 0 -0.04 0.04 -0.04 0.08 z M6.82 15.08 l0.04 0 l0 -0.06 l-0.04 0 l0 0.06 z M6.96 15.08 c0.02 0 -0.02 -0.02 0 0 l0 0 z M6.58 15.440000000000001 c-0.04 -0.04 -0.1 -0.04 -0.08 0.04 c0.04 0 0.06 -0.02 0.08 -0.04 c0.16 -0.04 0.36 -0.2 0.36 -0.32 c-0.02 0.06 -0.1 0.04 -0.12 0.1 c-0.02 -0.02 -0.04 -0.06 -0.02 -0.1 c-0.08 0 -0.2 0.06 -0.12 0.1 c0 -0.04 0.02 -0.06 0.06 -0.04 c0 0.08 0.04 0.1 -0.02 0.14 c-0.02 -0.14 -0.04 0.04 -0.08 0.04 c-0.02 0 -0.1 -0.08 -0.12 -0.02 c0.04 0.02 0.1 0.06 0.06 0.1 z M7.04 15.219999999999999 c0 0.02 -0.02 -0.02 0 0 l0 0 z M6.3 15.48 c0.06 -0.04 0.14 -0.04 0.14 -0.14 c-0.06 0.02 -0.14 0.04 -0.14 0.14 z M6.82 15.36 c-0.06 0.08 0.08 -0.06 0 0 l0 0 z M6.22 15.54 c0 -0.04 0.04 -0.06 0.04 -0.08 c-0.06 -0.02 -0.1 0.06 -0.04 0.08 z M6.4 15.6 c0 -0.04 0.08 -0.02 0.06 -0.1 c-0.06 -0.02 -0.1 0.08 -0.06 0.1 z M6.48 15.620000000000001 c0.08 0 0.1 -0.06 0.14 -0.12 c-0.06 0.02 -0.12 0.06 -0.14 0.12 z M6 15.7 c0.1 -0.06 0.08 -0.08 0.22 -0.1 c-0.06 -0.14 -0.3 0 -0.22 0.1 z M5.76 15.74 c-0.06 0.04 0.04 0.04 -0.02 0.06 c-0.08 0.02 -0.22 0 -0.24 0.18 c0.18 -0.08 0.28 -0.2 0.44 -0.2 c0.02 -0.06 0.02 -0.12 -0.04 -0.12 c0 0.08 -0.1 0.06 -0.14 0.08 z M5.46 15.82 c0.02 0.02 0 0 0 0 l0 0 z M5.98 15.82 c-0.06 0.08 0.08 -0.04 0 0 l0 0 z M5.3 15.92 c0.04 0 0.06 -0.02 0.06 -0.04 c-0.04 0 -0.06 0.02 -0.06 0.04 z M5.4 16.06 c0.06 0.02 0.12 -0.12 0.04 -0.12 c0.02 0.08 -0.08 0.04 -0.04 0.12 z M5.74 16.04 c0 -0.04 0.06 -0.02 0.06 -0.06 c-0.06 -0.04 -0.14 0.04 -0.06 0.06 z M5.34 16.06 c0.02 0.02 0 0 0 0 l0 0 z M5.58 16.1 c-0.02 0 0 0.02 0 0 c0.04 -0.02 0 -0.04 0 0 z M4.86 16.38 c0.16 -0.06 0.42 -0.14 0.42 -0.28 c-0.12 0.12 -0.34 0.12 -0.42 0.28 z M5.48 16.16 c0.02 0.02 0 0 0 0 l0 0 z M1.06 16.22 c-0.02 -0.02 -0.06 -0.04 -0.06 0 c-0.02 0.04 0.08 0.04 0.06 0 z M5.4 16.22 c0.02 0.06 0.06 -0.1 0 0 l0 0 z M4.88 16.259999999999998 c0.02 0.02 0 -0.02 0 0 l0 0 z M3.8 16.98 c0.52 -0.1 0.68 -0.34 1.04 -0.58 c-0.4 0.14 -0.66 0.42 -1.04 0.58 z M4.92 16.5 c0 0.02 -0.02 -0.02 0 0 l0 0 z M5.1 16.5 c-0.02 0 -0.04 0 -0.04 0.02 c0.02 0 0.04 0 0.04 -0.02 z M5.08 16.62 c0.02 0.02 -0.02 -0.02 0 0 l0 0 z M3.9 16.68 c0.02 0 -0.02 -0.02 0 0 l0 0 z M2.76 16.7 c0.02 0 -0.02 -0.02 0 0 l0 0 z M2.94 16.72 c0.06 0.1 0.02 -0.06 0 0 l0 0 z M4.54 16.740000000000002 c0.02 0.02 0 0 0 0 l0 0 z M3.84 16.759999999999998 c0.02 0.02 0 0 0 0 l0 0 z M2.64 17 c-0.06 0.08 0.08 -0.06 0 0 l0 0 z M4.02 17.06 l0.04 0 l0 -0.06 l-0.04 0 l0 0.06 z M2.74 17.06 c0.02 0 -0.02 -0.02 0 0 l0 0 z M-0.02 17.3 c-0.08 -0.1 -0.3 -0.1 -0.4 0 c0.32 0.1 0.58 0.26 1 0.26 c-0.02 -0.16 0.08 -0.22 0.06 -0.4 c-0.28 0 -0.46 0.02 -0.66 0.14 z M0.68 17.56 l0.16 0 c-0.02 -0.18 0 -0.2 0.02 -0.38 c-0.24 0 -0.1 0.28 -0.18 0.38 z M1 17.32 c0.04 0.02 0.1 0.04 0.14 0.08 c-0.02 -0.1 0.08 -0.08 0.06 -0.18 c-0.14 0.02 -0.12 0.1 -0.2 0 l0 0.1 z M3.36 17.240000000000002 c-0.04 0.02 -0.08 -0.06 -0.1 0 c0.04 0.02 0.08 0.08 0.1 0 z M3.66 17.36 c0 -0.04 -0.02 -0.06 -0.06 -0.06 c0 0.04 0 0.08 0.06 0.06 z M1.32 17.32 c-0.02 0 -0.06 0 -0.06 0.02 c0.02 0 0.06 0 0.06 -0.02 z M0.98 17.52 c0.06 0.02 0.06 -0.16 0 -0.12 l0 0.12 z M2.24 17.4 c-0.04 -0.02 -0.08 0 -0.08 0.02 c-0.04 0.08 0.12 0.02 0.08 -0.02 z M1.06 17.44 c0.02 0.1 0.02 -0.1 0 0 l0 0 z M2.14 17.54 c0 -0.06 -0.02 -0.1 -0.06 -0.1 c0 0.06 0.02 0.08 0.06 0.1 z M2.38 17.46 c0.06 0.1 0.02 -0.08 0 0 l0 0 z M2 17.52 l0.04 0 l0 -0.06 l-0.04 0 l0 0.06 z M2.32 17.64 c0.1 0 0.12 -0.04 0.2 0 c0 -0.08 0.06 -0.06 0.12 -0.06 c-0.04 -0.12 -0.28 -0.02 -0.32 0.06 z M1.96 17.740000000000002 c0.1 0.02 0.28 0 0.34 -0.1 c-0.1 0.02 -0.24 0.02 -0.34 0.1 z M3.2 17.740000000000002 c0 -0.06 -0.02 -0.08 -0.06 -0.08 c-0.02 0.04 -0.02 0.1 0.06 0.08 z M1.06 17.78 l0.04 0 l0 -0.04 l-0.04 0 l0 0.04 z M1.92 17.759999999999998 c0.02 0.08 0.04 -0.1 0 0 l0 0 z M2.38 17.759999999999998 c0.06 0.08 0.02 -0.08 0 0 l0 0 z M0.98 17.9 c-0.02 -0.06 0.04 -0.16 -0.06 -0.14 c0 0.06 0 0.14 0.06 0.14 z M0.76 17.8 c0.02 0.1 0.02 -0.1 0 0 l0 0 z M2.04 17.88 c0.04 0 0.02 0.06 -0.02 0.04 c0.02 0.08 0.06 0.06 0 0.12 c0.14 -0.04 0.24 -0.12 0.28 -0.26 c-0.1 0.02 -0.2 0.04 -0.26 0.1 z M4.14 17.82 c0.08 0.08 0.06 -0.08 0 0 l0 0 z M0.4 17.9 c0 0.12 0.04 0.04 0.14 0.04 l0 -0.06 c-0.08 -0.02 -0.08 0.04 -0.14 0.02 z M0.72 17.94 c0 -0.06 -0.04 -0.08 -0.08 -0.06 c-0.02 0.06 0.04 0.06 0.08 0.06 z M1.84 18.02 c0.08 0 0.1 -0.04 0.1 -0.08 c-0.02 0 -0.02 -0.04 -0.04 -0.04 c0.02 0.08 -0.04 0.08 -0.06 0.12 z M4.52 17.98 c-0.02 0 -0.06 -0.02 -0.06 0.02 c0.02 0 0.06 0 0.06 -0.02 z M0.26 18.04 c0 0.02 -0.02 0 0 0 l0 0 z M0.66 18.06 l0.02 0 l0 -0.04 l-0.02 0 l0 0.04 z M0.74 18.04 c-0.06 0.08 0.08 -0.06 0 0 l0 0 z M1.92 18.1 c0.02 -0.02 0.06 0 0.04 -0.06 l-0.02 0 c0 0.02 -0.02 0.04 -0.02 0.06 z M4.76 18.16 c0.08 0.08 0.08 -0.08 0 0 l0 0 z M5 18.28 c0.02 -0.04 -0.06 -0.1 -0.06 -0.04 c0.04 0 0.02 0.06 0.06 0.04 z M5.16 18.26 c0.02 0.1 0.02 -0.1 0 0 l0 0 z M5.04 18.3 c0 0.02 -0.02 0 0 0 l0 0 z M1.56 18.36 c0.02 0.08 0.02 -0.1 0 0 l0 0 z M5.22 18.38 c0.04 0.08 0.04 -0.1 0 0 l0 0 z M0.56 19.22 l0.02 0 c0.02 -0.08 0 -0.12 -0.04 -0.14 c0.2 -0.06 -0.04 -0.26 0.08 -0.34 c-0.02 0.04 -0.02 0.08 0.02 0.08 c0.02 -0.12 0.04 -0.24 0.08 -0.34 c-0.08 0.02 -0.1 -0.04 -0.18 -0.02 c-0.02 0.08 0.04 0.24 -0.08 0.28 c0.06 0.56 -0.16 1.06 -0.28 1.72 c0.12 -0.04 0.04 -0.32 0.2 -0.3 c0 -0.06 -0.06 -0.04 -0.04 -0.12 c0.1 0.02 0.16 -0.12 0.1 -0.16 c-0.02 0.02 -0.04 0.14 -0.06 0.08 c0.04 -0.28 0.22 -0.58 0.18 -0.74 z M5.46 18.52 c0.02 -0.06 -0.08 -0.08 -0.1 -0.04 c0.06 0 0.04 0.06 0.1 0.04 z M0.96 18.8 c0.06 0.02 0.06 -0.12 0 -0.08 l0 0.08 z M1.34 18.76 c0.02 0.02 -0.02 0 0 0 l0 0 z M5.86 18.76 c-0.1 -0.08 -0.06 0.08 0 0 l0 0 z M0.9 18.84 c0.02 0.02 0 -0.02 0 0 l0 0 z M1.34 18.94 l0.04 0 l0 -0.06 l-0.04 0 l0 0.06 z M6.14 19.06 c0.02 0 -0.02 -0.02 0 0 l0 0 z M6.18 19.08 l0.06 0 l0 -0.04 l-0.06 0 l0 0.04 z M1.14 19.34 c0.04 0.08 0.04 -0.1 0 0 l0 0 z M6.62 19.34 c-0.02 0.02 -0.04 0 -0.04 0.04 c0.02 -0.02 0.04 -0.02 0.04 -0.04 z M6.86 19.52 c0 -0.02 -0.04 -0.04 -0.04 0 l0.04 0 z M1.06 19.64 c0 0.02 -0.02 -0.02 0 0 l0 0 z M1.02 19.88 c-0.02 0 -0.04 0 -0.04 0.02 c0.02 0 0.04 0 0.04 -0.02 z M8 20.2 c-0.02 0 -0.06 0 -0.06 0.02 c0.02 -0.02 0.06 0 0.06 -0.02 z M0.34 20.26 l0 0.06 l0.06 0 c0.02 -0.04 0.02 -0.06 -0.02 -0.08 c-0.02 0.02 -0.02 0.04 -0.04 0.02 z M0.86 20.3 c0.02 0 -0.02 -0.02 0 0 l0 0 z M7.42 20.26 c-0.02 0.14 0.1 0.02 0 0 l0 0 z M7.52 20.3 c0.02 0.08 0.02 -0.08 0 0 l0 0 z M0.32 20.38 c-0.02 0.14 0.1 0.02 0 0 l0 0 z M7.54 20.42 c-0.02 0 -0.04 0 -0.04 0.02 c0 -0.02 0.04 0 0.04 -0.02 z M7.66 20.56 l0.04 0 l0 -0.06 l-0.04 0 l0 0.06 z M0.18 20.56 c-0.02 0.06 0.12 0.1 0.12 0.02 c-0.04 -0.02 -0.08 -0.08 -0.12 -0.02 z M8.18 20.56 c-0.06 -0.1 -0.02 0.08 0 0 l0 0 z M8.22 20.74 c0.02 0.02 -0.02 0 0 0 l0 0 z M7.82 20.82 c0.02 0.02 0 -0.02 0 0 l0 0 z M8.24 20.86 c0.04 0.08 0.08 -0.02 0.02 -0.04 c0 0.02 -0.02 0.02 -0.02 0.04 z M0.76 20.9 c0.02 0 -0.02 -0.02 0 0 l0 0 z M8.36 21.1 c0.02 0.06 0 0.16 0.08 0.18 c-0.04 -0.06 0 -0.16 -0.08 -0.18 c0.02 -0.1 -0.06 0 0 0 z M0.12 21.16 c0.02 -0.04 0.04 -0.04 0.04 -0.06 c-0.04 -0.02 -0.1 0.04 -0.04 0.06 z M0.04 21.38 c0.08 0.02 0.08 -0.14 0.04 -0.18 c0.02 0.1 -0.06 0.1 -0.04 0.18 z M8.04 21.3 c0.04 0.1 0.04 -0.1 0 0 l0 0 z M0.12 21.38 l0.04 0 l0 -0.06 l-0.04 0 l0 0.06 z M8.14 21.52 c0 -0.06 -0.02 -0.1 -0.04 -0.12 c-0.02 0.06 -0.02 0.12 0.04 0.12 z M0 21.52 c0.04 0.1 0.04 -0.1 0 0 l0 0 z M0.08 21.52 c0.02 0.02 -0.02 -0.02 0 0 l0 0 z M8.18 21.66 c-0.02 0 0 -0.12 -0.04 -0.12 c-0.02 0.06 0.02 0.2 0.04 0.12 z M-0.02 21.78 c-0.02 0 -0.04 0 -0.04 0.02 c0.02 0 0.04 0 0.04 -0.02 z M8.18 21.88 c0 0.02 -0.02 -0.02 0 0 l0 0 z M8.44 22.08 l0.04 0 l0 -0.06 l-0.04 0 l0 0.06 z M-0.14 22.240000000000002 c0.02 0.02 0 0 0 0 l0 0 z M-0.18 22.36 l0.04 0 l0 -0.04 l-0.04 0 l0 0.04 z M7.8 6.699999999999999 c-0.02 0.02 -0.14 0.06 -0.14 0 c-0.02 -0.06 0.12 -0.1 0.14 -0.04 l0 0.04 z M7.58 6.699999999999999 c0.08 -0.06 -0.06 0.08 0 0 l0 0 z M7.88 6.74 c-0.02 -0.06 0.06 -0.08 0.1 -0.04 c-0.02 0.04 -0.06 0.04 -0.1 0.04 z M7.8 6.699999999999999 c0.08 0 -0.02 0.1 0 0 l0 0 z M8 6.720000000000001 l0 0 c0.02 0.02 -0.02 0 0 0 z M7.44 6.74 l0 0 c0.02 0.02 0 0 0 0 z M8.12 6.720000000000001 c0 0.06 0 0.1 -0.02 0.12 c-0.06 0 -0.06 -0.02 -0.1 -0.02 c0 -0.06 0.06 -0.08 0.12 -0.1 z M8.16 6.720000000000001 c0 0.02 0.08 0.04 0.06 0.12 c-0.04 0 -0.06 -0.04 -0.06 0 c0 -0.02 -0.02 -0.08 0 -0.12 z M7.88 6.74 c0 0.04 0 0.08 0.02 0.08 c-0.02 0.08 -0.1 -0.08 -0.02 -0.08 z M4.84 6.800000000000001 c0.02 -0.1 0.02 0.06 0 0 l0 0 z M8.26 6.82 c0.02 -0.04 0.06 -0.02 0.06 0 c-0.02 0.04 -0.02 0 -0.06 0 z M7.64 6.859999999999999 c0 0.04 -0.02 0.04 -0.02 0.08 c-0.08 0 -0.06 -0.1 0.02 -0.08 z M7.68 6.859999999999999 c0.08 -0.02 0.06 0.02 0.12 0.02 c-0.04 0.02 -0.04 0.1 -0.12 0.12 c0 -0.1 -0.02 -0.08 0 -0.14 z M8.42 6.880000000000001 c0 -0.02 0.04 -0.02 0.04 -0.02 c-0.02 0 -0.04 0 -0.04 0.02 z M8.48 6.9 c0 -0.04 0.04 -0.02 0.08 -0.02 c0 0.02 -0.04 0.02 -0.08 0.02 z M8.22 7.039999999999999 c-0.14 0.02 -0.18 -0.04 -0.4 -0.08 c0.08 -0.08 0.32 0.04 0.4 0.08 z M8.84 7.039999999999999 c-0.06 0.08 -0.1 -0.08 0 0 l0 0 z M8.54 7.0600000000000005 c0.08 -0.06 -0.06 0.08 0 0 l0 0 z M8.3 7.0600000000000005 c0.02 0.02 0.08 0 0.06 0.08 c-0.04 0 -0.08 -0.02 -0.06 -0.08 z M8.12 7.199999999999999 c-0.16 0 -0.26 -0.06 -0.38 -0.08 c0.1 -0.06 0.28 0.02 0.38 0.08 z M8.46 7.140000000000001 c0.06 0 0.1 0.02 0.1 0.1 c-0.06 -0.02 -0.12 -0.02 -0.1 -0.1 z M4.86 7.18 l0 0 c0.02 0.02 0 0 0 0 z M8.26 7.18 c0.04 -0.1 0.04 0.1 0 0 l0 0 z M8.72 7.18 c0 -0.02 0.04 -0.02 0.06 -0.02 c-0.02 0.02 -0.04 0.02 -0.06 0.02 z M8.12 7.199999999999999 l0 0 c0 0.04 0.02 0 0 0 z M2.64 7.26 l0 0 c0.02 0 -0.02 -0.02 0 0 z M8.7 7.4 c0 -0.02 0.02 -0.02 0.04 -0.02 c0 0.02 -0.02 0.02 -0.04 0.02 z M8.8 7.4 c0.02 -0.08 0.06 0.1 0 0 l0 0 z M9.62 7.66 c-0.08 0 0.02 -0.1 0 0 l0 0 z M10.74 11.22 l0 0.08 c-0.06 0 -0.04 -0.06 0 -0.08 z M10.58 11.68 c0.06 0.04 -0.04 0.12 -0.04 0.18 c-0.08 -0.06 0.04 -0.14 0.04 -0.18 z M1.06 11.92 c0.02 -0.1 0.02 0.08 0 0 l0 0 z M9.88 12.66 c0.08 -0.06 -0.06 0.08 0 0 l0 0 z M10 12.68 c0 0 0 -0.02 0.02 -0.02 c0 0.02 0 0.04 -0.02 0.02 z M9.8 12.76 c0.04 -0.1 0.04 0.1 0 0 l0 0 z M1.06 13.3 c0 -0.04 0.04 -0.04 0.04 0 c-0.02 0.02 -0.02 -0.02 -0.04 0 z M1.32 13.440000000000001 c0.02 -0.1 0.02 0.08 0 0 l0 0 z M1.08 13.6 c0.02 -0.1 0.02 0.1 0 0 l0 0 z M1.06 14.24 c0.02 -0.1 0.02 0.08 0 0 l0 0 z M8.42 14.36 l0.06 0 c0.02 0.08 -0.06 0.06 -0.12 0.08 c-0.02 -0.08 0.08 -0.02 0.06 -0.08 z M3.08 14.54 l0 0 c0.02 0.02 -0.02 0 0 0 z M7.92 14.84 c0.02 0.04 -0.04 0.04 -0.06 0.04 c-0.02 0.06 0.04 0.06 0 0.1 c-0.08 -0.02 -0.1 -0.04 -0.1 0.04 c-0.06 -0.04 -0.08 0.02 -0.12 -0.02 c0.02 -0.06 0 -0.16 0.1 -0.16 c-0.02 0.02 -0.04 0.04 -0.04 0.1 c0.06 -0.06 0.14 -0.08 0.22 -0.1 z M7.52 15.02 c0.02 -0.06 0.06 0.04 0.12 0 c-0.06 0.22 -0.36 0.28 -0.44 0.4 c-0.14 0.04 0 -0.2 0.08 -0.2 c0.02 0.08 0.28 -0.12 0.24 -0.2 z M7.44 15.059999999999999 c0 -0.04 0.06 -0.04 0.06 0 c-0.02 0.02 -0.04 -0.02 -0.06 0 z M7.3 15.18 c0.02 -0.1 0.02 0.08 0 0 l0 0 z M2.74 15.34 c0.02 -0.1 0.02 0.1 0 0 l0 0 z M1.24 15.620000000000001 c-0.08 -0.06 0.02 -0.14 0 -0.24 c0.04 0.04 0.04 0.22 0 0.24 z M6.98 15.379999999999999 c0.08 0 0.1 0.06 0.14 0.08 c-0.14 0.1 -0.3 0.32 -0.5 0.32 c0.04 -0.08 0.14 -0.04 0.08 -0.16 c0.04 0.04 0.1 0.04 0.1 -0.04 c0.1 0.04 0.16 -0.08 0.18 -0.2 z M6.84 15.54 c0.02 -0.02 0.04 -0.02 0.04 -0.04 c-0.02 0.02 -0.04 0 -0.04 0.04 z M6.58 15.780000000000001 c-0.02 0.06 -0.08 0.04 -0.08 0.12 c-0.1 0.02 -0.16 0.04 -0.14 0.16 c-0.06 0 -0.1 -0.04 -0.12 0.04 c-0.04 -0.02 -0.02 -0.06 -0.06 -0.06 c0 0.06 -0.14 0.16 -0.14 0.02 c0.1 0.02 0.16 -0.1 0.08 -0.12 c0.04 -0.04 0.2 -0.02 0.18 0.06 c0.04 -0.08 0.08 -0.14 0.14 -0.18 c0 -0.04 -0.08 0 -0.1 -0.02 c0 -0.12 0.14 -0.02 0.24 -0.02 z M1.2 15.86 c0.12 0.04 0 0.24 0.02 0.36 c-0.1 -0.08 -0.06 -0.26 -0.02 -0.36 z M6 16.02 c-0.02 0.06 -0.04 0.08 0.02 0.12 c-0.06 0.06 -0.14 -0.04 -0.14 -0.1 c0.02 -0.02 0.06 -0.02 0.12 -0.02 z M0.92 16.06 c0.04 -0.08 0.04 0.1 0 0 l0 0 z M5.76 16.16 c0.08 0.02 0.12 0.08 0.16 0.08 c-0.04 0.16 -0.28 0.12 -0.34 0.28 c-0.1 0 -0.08 0.06 -0.18 0.02 c0.1 -0.16 0.22 -0.16 0.42 -0.26 c0.02 -0.08 -0.1 -0.02 -0.06 -0.12 z M5.44 16.36 c0.02 0.1 -0.06 0.1 -0.14 0.12 c0.02 -0.08 0.08 -0.1 0.14 -0.12 z M4.82 16.759999999999998 c-0.02 0.06 -0.08 0.08 -0.14 0.08 c0.02 -0.06 0.04 -0.08 0.14 -0.08 z M4.32 17 c0 -0.02 0.04 -0.02 0.06 -0.02 c0 0.02 -0.04 0.02 -0.06 0.02 z M4.12 17.66 l0 0 c0 0.02 -0.02 -0.02 0 0 z M4.5 17.8 c-0.04 0 -0.08 0 -0.08 -0.04 l0.06 0 c0 0 0 0.02 0.02 0.02 l0 0.02 z M2.56 17.8 c0.06 -0.1 0.04 0.08 0 0 l0 0 z M4.5 17.8 c0.1 0 0 0.1 0 0 l0 0 z M4.96 17.92 c0 -0.02 0.04 -0.02 0.04 0 c0 0.04 -0.02 0 -0.04 0 z M5.16 17.98 c-0.02 0.02 -0.04 0.04 -0.08 0.04 c-0.02 -0.06 0.04 -0.04 0.08 -0.04 z M5.18 18 c0 -0.02 0.02 -0.02 0.04 -0.02 c0 0.02 -0.02 0 -0.04 0.02 z M5.46 18.16 l0.04 0 l0 0.06 l-0.04 0 l0 -0.06 z M5.64 18.26 c-0.04 0 -0.1 -0.02 -0.1 0.02 c-0.08 -0.06 0.1 -0.14 0.1 -0.02 z M5.28 18.26 c0 -0.04 0.04 -0.02 0.04 0 c-0.02 0.04 -0.02 0 -0.04 0 z M5.74 18.38 l0 0 c0 0.02 -0.02 -0.02 0 0 z M5.88 18.42 c0 -0.02 0.02 -0.02 0.04 -0.02 c0 0.02 -0.02 0.02 -0.04 0.02 z M6.04 18.56 c0.04 -0.1 0.04 0.08 0 0 l0 0 z M6.24 18.58 c0.02 0.08 -0.04 0.06 -0.06 0.12 c-0.06 0 -0.04 -0.16 0.06 -0.12 z M6.44 18.88 c0.06 -0.06 0.18 0.04 0.16 0.16 c-0.06 -0.06 -0.1 -0.12 -0.16 -0.16 z M1.66 18.96 l0 0 c0 0.02 -0.02 -0.02 0 0 z M6.82 19.2 c-0.08 0.02 -0.04 -0.1 -0.12 -0.08 c0.02 -0.1 0.12 0 0.12 0.08 z M0.56 19.22 c-0.02 -0.02 -0.04 -0.04 -0.04 -0.1 c0.04 0.02 0.04 0.04 0.04 0.1 z M6.88 19.22 c0.04 0 0.06 0.04 0.06 0.1 c-0.04 -0.02 -0.1 -0.06 -0.06 -0.1 z M7.24 19.56 c-0.1 -0.04 -0.18 -0.1 -0.24 -0.22 c0.14 0.04 0.18 0.16 0.24 0.22 z M7.24 19.56 c0.04 0 0.06 0.02 0.06 0.08 l-0.06 0 l0 -0.08 z M1.44 19.62 c0.08 -0.06 -0.06 0.08 0 0 l0 0 z M7.32 19.68 l0 0 c0.02 0.02 0 0 0 0 z M7.38 19.76 c0.06 -0.06 0.2 0.14 0.16 0.22 c-0.1 -0.04 -0.06 -0.2 -0.16 -0.22 z M7.62 20.02 c0.06 0.02 0.04 0.12 0.14 0.12 c0 0.06 -0.04 0.08 -0.1 0.08 c0.06 -0.08 -0.1 -0.08 -0.04 -0.2 z M7.78 20.22 c0.06 0.1 0.12 0.14 0.12 0.26 c-0.14 -0.02 -0.1 -0.16 -0.12 -0.26 z M8.06 20.46 l0 0 c0.02 0.02 0 -0.02 0 0 z M1.06 20.82 c0.08 -0.06 -0.04 0.08 0 0 l0 0 z M8.16 20.94 c-0.06 0 0 -0.1 0 0 l0 0 z M8.16 20.94 c0.04 0 -0.02 0.1 0 0 l0 0 z M8.32 21.48 l-0.08 0 c0 -0.04 0.04 -0.06 0.06 -0.08 c0.02 0 0.02 0.04 0.02 0.08 z M8.32 21.48 c0.08 0 0 0.1 0 0 l0 0 z M0.78 21.78 l0 0 c0.02 0.02 0 0 0 0 z"></path></g><g id="SvgjsG4937" featureKey="pulpyG-0" transform="matrix(0.9899044440108761,0,0,0.9899044440108761,75.13897894194496,27.446832693933573)" fill="#ffffff"><path d="M9.38 14.780000000000001 c-0.28 0.58 -0.68 1.02 -1.24 1.28 l1.68 3.7 c0.06 0.12 -0.02 0.24 -0.14 0.24 l-2.46 0 c-0.08 0 -0.12 -0.04 -0.14 -0.1 l-1.56 -3.4 l-1.02 0 l0 3.32 c0 0.1 -0.08 0.18 -0.18 0.18 l-2.3 0 c-0.08 0 -0.14 -0.08 -0.14 -0.18 l0 -12.84 c0 -0.1 0.06 -0.18 0.14 -0.18 l4.16 0 c2.22 0 3.56 1.26 3.56 3.6 l0 2.52 c0 0.7 -0.12 1.36 -0.36 1.86 z M7.12 12.3 l0 -1.3 c0 -1.4 -0.52 -1.54 -2.04 -1.54 l-0.58 0 l0 4.42 l0.58 0 c1.26 0 2 -0.02 2.04 -1.58 z M3.34 18.78 l0 -3.42 l2.88 0 l1.68 3.46 c0.04 0.1 0.28 0.06 0.22 -0.12 l-1.68 -3.4 c1.56 -0.22 2.1 -1.04 2.1 -2.52 l0 -2.5 c0 -2.2 -2 -2.38 -2.62 -2.38 l-2.7 0 c-0.04 0 -0.12 0.06 -0.12 0.12 l0 10.76 c0 0.14 0.24 0.14 0.24 0 z M8.3 10.28 l0 2.5 c0 2.04 -1.3 2.32 -2.56 2.32 l-2.4 0 l0 -6.94 l2.58 0 c2.16 0 2.38 1.46 2.38 2.12 z M17.62 6.619999999999999 c1.72 0 2.92 0.38 3.68 1.2 c0.6 0.66 0.88 1.6 0.88 2.94 l0 5.26 c0 1.38 -0.28 2.34 -0.88 2.98 c-0.78 0.8 -1.96 1.2 -3.68 1.2 c-1.78 0 -2.94 -0.4 -3.7 -1.2 c-0.58 -0.64 -0.9 -1.6 -0.9 -2.98 l0 -5.26 c0 -1.34 0.32 -2.28 0.9 -2.96 c0.78 -0.8 1.96 -1.18 3.7 -1.18 z M19.52 15.42 l0 -4 c0 -1.76 -0.94 -2.12 -1.8 -2.12 l-0.24 0 c-1.28 0 -1.78 0.82 -1.78 2.12 l0 4 c0 1.76 0.94 2.14 1.78 2.14 l0.24 0 c1.28 0 1.78 -0.86 1.8 -2.14 z M14.280000000000001 10.9 l0 4.96 c0 0.94 0.24 1.72 0.8 2.3 c0.52 0.52 1.32 0.8 2.3 0.8 l0.52 0 c1.88 0 3.1 -1.2 3.1 -3.1 l0 -4.96 c0 -2.04 -1.08 -3.14 -3.1 -3.14 l-0.52 0 c-2.04 0 -3.1 1.1 -3.1 3.14 z M17.9 18.7 l-0.52 0 c-0.94 0 -1.64 -0.24 -2.14 -0.74 s-0.76 -1.2 -0.76 -2.1 l0 -4.96 c0 -1.9 1.02 -2.9 2.9 -2.9 l0.52 0 c1.9 0 2.84 0.98 2.84 2.9 l0 4.96 c0 0.84 -0.26 1.6 -0.8 2.12 c-0.52 0.44 -1.22 0.72 -2.04 0.72 z M31.14 6.98 c0 -0.1 0.08 -0.18 0.18 -0.18 l2.3 0 c0.1 0 0.18 0.08 0.18 0.18 l0 12.84 c0 0.1 -0.08 0.18 -0.18 0.18 l-2.22 0 c-0.08 0 -0.16 -0.04 -0.18 -0.1 l-2.92 -6.58 l0 6.5 c0 0.1 -0.08 0.18 -0.18 0.18 l-2.28 0 c-0.1 0 -0.16 -0.08 -0.16 -0.18 l0 -12.84 c0 -0.1 0.06 -0.18 0.16 -0.18 l2.36 0 c0.08 0 0.12 0.06 0.14 0.1 l2.8 6.46 l0 -6.38 z M32.58 18.8 l0 -10.8 c0 -0.14 -0.26 -0.18 -0.26 0 l0 10.28 l-5.22 -10.32 c-0.06 -0.08 -0.22 -0.08 -0.22 0.04 l0 10.78 c0 0.18 0.24 0.18 0.24 0 l0 -10.26 l5.2 10.3 c0.08 0.14 0.26 0.1 0.26 -0.02 z M40.06 6.92 c0.02 -0.06 0.06 -0.12 0.14 -0.12 l2.48 0 c0.08 0 0.12 0.06 0.14 0.12 l3.46 12.86 c0.02 0.12 -0.06 0.22 -0.18 0.22 l-2.28 0 c-0.06 0 -0.12 -0.04 -0.14 -0.12 l-0.78 -2.8 l-2.92 0 l-0.76 2.8 c-0.02 0.08 -0.06 0.12 -0.14 0.12 l-2.3 0 c-0.12 0 -0.2 -0.1 -0.18 -0.22 z M40.62 14.6 l1.66 0 l-0.86 -3.02 z M43.7 15.780000000000001 l0.92 3 c0.04 0.12 0.26 0.1 0.2 -0.06 l-3.2 -10.64 c-0.06 -0.26 -0.4 -0.28 -0.46 0 l-3.1 10.64 c-0.06 0.14 0.16 0.2 0.22 0.08 l0.88 -3.02 l4.54 0 z M39.22 15.52 l2.18 -7.36 l2.22 7.36 l-4.4 0 z M51.52 6.800000000000001 c0.1 0 0.18 0.08 0.18 0.18 l0 10.5 l4.32 0 c0.1 0 0.18 0.08 0.18 0.18 l0 2.16 c0 0.1 -0.08 0.18 -0.18 0.18 l-6.78 0 c-0.1 0 -0.16 -0.08 -0.16 -0.18 l0 -12.84 c0 -0.1 0.06 -0.18 0.16 -0.18 l2.28 0 z M50.28 8.02 l0 10.76 c0 0.04 0.04 0.1 0.12 0.1 l4.62 0 c0.16 0 0.16 -0.26 0 -0.26 l-4.52 0 l0 -10.6 c0 -0.14 -0.22 -0.16 -0.22 0 z M64.16000000000001 6.800000000000001 c1.36 0 2.38 0.38 3.06 1.12 c0.6 0.66 0.9 1.64 0.9 2.84 l0 5.3 c0 2.42 -1.4 3.94 -3.96 3.94 l-5 0 c-0.1 0 -0.16 -0.08 -0.16 -0.18 l0 -12.84 c0 -0.1 0.06 -0.18 0.16 -0.18 l5 0 z M65.5 15.46 l0 -4.1 c0 -1.26 -0.66 -2.06 -2.06 -2.06 l-1.8 0 l0 8.2 l1.8 0 c1.2 0 2.06 -0.78 2.06 -2.04 z M60.220000000000006 8.02 l0 10.76 c0 0.08 0.08 0.1 0.12 0.1 l3.26 0 c2.3 0 3.34 -1.38 3.34 -2.66 l0 -5.12 c0 -2.12 -1.12 -3.2 -3.4 -3.2 l-3.2 0 c-0.04 0 -0.12 0.02 -0.12 0.12 z M66.7 11.1 l0 5.12 c0 1.6 -1.6 2.44 -3.1 2.44 l-3.14 0 l0 -10.5 l3.08 0 c2.1 0 3.16 0.94 3.16 2.94 z M83.44000000000001 6.619999999999999 c1.72 0 2.92 0.38 3.68 1.2 c0.6 0.66 0.88 1.6 0.88 2.94 l0 5.26 c0 1.38 -0.28 2.34 -0.88 2.98 c-0.78 0.8 -1.96 1.2 -3.68 1.2 c-1.78 0 -2.94 -0.4 -3.7 -1.2 c-0.58 -0.64 -0.9 -1.6 -0.9 -2.98 l0 -5.26 c0 -1.34 0.32 -2.28 0.9 -2.96 c0.78 -0.8 1.96 -1.18 3.7 -1.18 z M85.34000000000002 15.42 l0 -4 c0 -1.76 -0.94 -2.12 -1.8 -2.12 l-0.24 0 c-1.28 0 -1.78 0.82 -1.78 2.12 l0 4 c0 1.76 0.94 2.14 1.78 2.14 l0.24 0 c1.28 0 1.78 -0.86 1.8 -2.14 z M80.10000000000001 10.9 l0 4.96 c0 0.94 0.24 1.72 0.8 2.3 c0.52 0.52 1.32 0.8 2.3 0.8 l0.52 0 c1.88 0 3.1 -1.2 3.1 -3.1 l0 -4.96 c0 -2.04 -1.08 -3.14 -3.1 -3.14 l-0.52 0 c-2.04 0 -3.1 1.1 -3.1 3.14 z M83.72000000000001 18.7 l-0.52 0 c-0.94 0 -1.64 -0.24 -2.14 -0.74 s-0.76 -1.2 -0.76 -2.1 l0 -4.96 c0 -1.9 1.02 -2.9 2.9 -2.9 l0.52 0 c1.9 0 2.84 0.98 2.84 2.9 l0 4.96 c0 0.84 -0.26 1.6 -0.8 2.12 c-0.52 0.44 -1.22 0.72 -2.04 0.72 z M93.56000000000002 9.3 l-2.84 0 c-0.1 0 -0.18 -0.08 -0.18 -0.18 l0 -2.14 c0 -0.1 0.08 -0.18 0.18 -0.18 l8.34 0 c0.1 0 0.18 0.08 0.18 0.18 l0 2.14 c0 0.1 -0.08 0.18 -0.18 0.18 l-2.84 0 l0 10.52 c0 0.1 -0.08 0.18 -0.18 0.18 l-2.3 0 c-0.1 0 -0.18 -0.08 -0.18 -0.18 l0 -10.52 z M97.84000000000002 7.9 l-6.04 0 c-0.14 0 -0.14 0.26 0 0.26 l2.96 0 l0 10.6 c0 0.14 0.26 0.14 0.26 0 l0 -10.6 l2.82 0 c0.2 0 0.18 -0.26 0 -0.26 z M102.20000000000003 20 c-0.1 0 -0.16 -0.08 -0.16 -0.18 l0 -12.84 c0 -0.1 0.06 -0.18 0.16 -0.18 l2.28 0 c0.1 0 0.18 0.08 0.18 0.18 l0 12.84 c0 0.1 -0.08 0.18 -0.18 0.18 l-2.28 0 z M103.24000000000002 8 l0 10.78 c0 0.18 0.22 0.18 0.22 0 l0 -10.78 c0 -0.14 -0.22 -0.14 -0.22 0 z M108.50000000000003 20 c-0.1 0 -0.16 -0.08 -0.16 -0.18 l0 -12.84 c0 -0.1 0.06 -0.18 0.16 -0.18 l6.8 0 c0.1 0 0.18 0.08 0.18 0.18 l0 2.14 c0 0.1 -0.08 0.18 -0.18 0.18 l-4.32 0 l0 2.72 l3.36 0 c0.1 0 0.16 0.08 0.16 0.18 l0 2.18 c0 0.1 -0.06 0.18 -0.16 0.18 l-3.36 0 l0 2.94 l4.32 0 c0.1 0 0.18 0.08 0.18 0.18 l0 2.14 c0 0.1 -0.08 0.18 -0.18 0.18 l-6.8 0 z M109.50000000000003 8.06 l0 10.64 c0 0.12 0.08 0.16 0.16 0.16 l4.6 0 c0.18 0 0.14 -0.24 0 -0.24 l-4.5 0 l0 -5.22 l3.68 0 c0.12 0 0.12 -0.28 0 -0.28 l-3.68 0 l0 -4.96 l4.5 0 c0.14 0 0.18 -0.26 0 -0.26 l-4.6 0 c-0.08 0 -0.16 0.06 -0.16 0.16 z M124.32000000000002 6.98 c0 -0.1 0.08 -0.18 0.18 -0.18 l2.3 0 c0.1 0 0.18 0.08 0.18 0.18 l0 12.84 c0 0.1 -0.08 0.18 -0.18 0.18 l-2.22 0 c-0.08 0 -0.16 -0.04 -0.18 -0.1 l-2.92 -6.58 l0 6.5 c0 0.1 -0.08 0.18 -0.18 0.18 l-2.28 0 c-0.1 0 -0.16 -0.08 -0.16 -0.18 l0 -12.84 c0 -0.1 0.06 -0.18 0.16 -0.18 l2.36 0 c0.08 0 0.12 0.06 0.14 0.1 l2.8 6.46 l0 -6.38 z M125.76000000000002 18.8 l0 -10.8 c0 -0.14 -0.26 -0.18 -0.26 0 l0 10.28 l-5.22 -10.32 c-0.06 -0.08 -0.22 -0.08 -0.22 0.04 l0 10.78 c0 0.18 0.24 0.18 0.24 0 l0 -10.26 l5.2 10.3 c0.08 0.14 0.26 0.1 0.26 -0.02 z M135.08 6.619999999999999 c1.72 0 2.92 0.38 3.68 1.2 c0.6 0.66 0.88 1.6 0.88 2.94 l0 5.26 c0 1.38 -0.28 2.34 -0.88 2.98 c-0.78 0.8 -1.96 1.2 -3.68 1.2 c-1.78 0 -2.94 -0.4 -3.7 -1.2 c-0.58 -0.64 -0.9 -1.6 -0.9 -2.98 l0 -5.26 c0 -1.34 0.32 -2.28 0.9 -2.96 c0.78 -0.8 1.96 -1.18 3.7 -1.18 z M136.98000000000002 15.42 l0 -4 c0 -1.76 -0.94 -2.12 -1.8 -2.12 l-0.24 0 c-1.28 0 -1.78 0.82 -1.78 2.12 l0 4 c0 1.76 0.94 2.14 1.78 2.14 l0.24 0 c1.28 0 1.78 -0.86 1.8 -2.14 z M131.74 10.9 l0 4.96 c0 0.94 0.24 1.72 0.8 2.3 c0.52 0.52 1.32 0.8 2.3 0.8 l0.52 0 c1.88 0 3.1 -1.2 3.1 -3.1 l0 -4.96 c0 -2.04 -1.08 -3.14 -3.1 -3.14 l-0.52 0 c-2.04 0 -3.1 1.1 -3.1 3.14 z M135.36 18.7 l-0.52 0 c-0.94 0 -1.64 -0.24 -2.14 -0.74 s-0.76 -1.2 -0.76 -2.1 l0 -4.96 c0 -1.9 1.02 -2.9 2.9 -2.9 l0.52 0 c1.9 0 2.84 0.98 2.84 2.9 l0 4.96 c0 0.84 -0.26 1.6 -0.8 2.12 c-0.52 0.44 -1.22 0.72 -2.04 0.72 z"></path></g>
			</g>
		</svg>
	